{
  "accessors": [
    {
      "bufferView": 2,
      "componentType": 5126,
      "count": 10129,
      "max": [
        0.83178865909576416,
        0.72534269094467163,
        0.36432906985282898
      ],
      "min": [
        -0.64016687870025635,
        -0.4314364492893219,
        -0.35706764459609985
      ],
      "type": "VEC3"
    },
    {
      "bufferView": 2,
      "byteOffset": 121548,
      "componentType": 5126,
      "count": 10129,
      "max": [
        0.99991321563720703,
        0.99996578693389893,
        0.99996817111968994
      ],
      "min": [
        -0.99998873472213745,
        -0.99980652332305908,
        -0.99992567300796509
      ],
      "type": "VEC3"
    },
    {
      "bufferView": 3,
      "componentType": 5126,
      "count": 10129,
      "max": [
        0.98943614959716797,
        0.99996399879455566,
        0.99987995624542236,
        1
      ],
      "min": [
        -0.99993366003036499,
        -0.99965465068817139,
        -0.99969685077667236,
        1
      ],
      "type": "VEC4"
    },
    {
      "bufferView": 1,
      "componentType": 5126,
      "count": 10129,
      "max": [
        0.99438029527664185,
        0.99942535161972046
      ],
      "min": [
        0.00083201745292171836,
        0.00081015878822654486
      ],
      "type": "VEC2"
    },
    {
      "bufferView": 0,
      "componentType": 5125,
      "count": 54918,
      "max": [
        10128
      ],
      "min": [
        0
      ],
      "type": "SCALAR"
    }
  ],
  "asset": {
    "extras": {
      "author": "KyotoVR (https://sketchfab.com/KyotoVR)",
      "license": "COPYRIGHT TO KyotoVR",
      "source": "https://sketchfab.com/3d-models/noh-mask-kurama-tengu-ad4ee11e7abc449c94beeee524b7ae6e",
      "title": "Noh Mask: Kurama Tengu"
    },
    "generator": "Sketchfab-5.3.0",
    "version": "2.0"
  },
  "bufferViews": [
    {
      "buffer": 0,
      "byteLength": 219672,
      "byteOffset": 0,
      "name": "floatBufferViews",
      "target": 34963
    },
    {
      "buffer": 0,
      "byteLength": 81032,
      "byteOffset": 219672,
      "byteStride": 8,
      "name": "floatBufferViews",
      "target": 34962
    },
    {
      "buffer": 0,
      "byteLength": 243096,
      "byteOffset": 300704,
      "byteStride": 12,
      "name": "floatBufferViews",
      "target": 34962
    },
    {
      "buffer": 0,
      "byteLength": 162064,
      "byteOffset": 543800,
      "byteStride": 16,
      "name": "floatBufferViews",
      "target": 34962
    }
  ],
  "buffers": [
    {
      "byteLength": 705864,
      "uri": "scene.bin"
    }
  ],
  "images": [
    {
      "uri": "textures/Mask_metallicRoughness.png"
    },
    {
      "uri": "textures/Mask_baseColor.png"
    },
    {
      "uri": "textures/Mask_normal.png"
    }
  ],
  "materials": [
    {
      "doubleSided": true,
      "name": "Mask",
      "normalTexture": {
        "index": 2,
        "scale": 0.34927591460000001,
        "texCoord": 0
      },
      "occlusionTexture": {
        "index": 0,
        "strength": 1,
        "texCoord": 0
      },
      "pbrMetallicRoughness": {
        "baseColorFactor": [
          0.80659298779999999,
          0.80659298779999999,
          0.80659298779999999,
          1
        ],
        "baseColorTexture": {
          "index": 1,
          "texCoord": 0
        },
        "metallicFactor": 0.50171493899999997,
        "metallicRoughnessTexture": {
          "index": 0,
          "texCoord": 0
        },
        "roughnessFactor": 1
      }
    }
  ],
  "meshes": [
    {
      "name": "Mask Final_Mask_0",
      "primitives": [
        {
          "attributes": {
            "NORMAL": 1,
            "POSITION": 0,
            "TANGENT": 2,
            "TEXCOORD_0": 3
          },
          "indices": 4,
          "material": 0,
          "mode": 4
        }
      ]
    }
  ],
  "nodes": [
    {
      "children": [
        1
      ],
      "name": "RootNode (gltf orientation matrix)",
      "rotation": [
        -0.70710678118654746,
        -0,
        -0,
        0.70710678118654757
      ]
    },
    {
      "children": [
        2
      ],
      "matrix": [
        0,
        0,
        -1,
        0,
        -1,
        0,
        0,
        0,
        0,
        1,
        0,
        0,
        0.2427649199962616,
        0.14332284033298492,
        0.099442079663276672,
        1
      ],
      "name": "RootNode (model correction matrix)"
    },
    {
      "children": [
        3
      ],
      "matrix": [
        1,
        0,
        0,
        0,
        0,
        0,
        1,
        0,
        0,
        -1,
        0,
        0,
        0,
        0,
        0,
        1
      ],
      "name": "Tengu_Mask.FBX"
    },
    {
      "children": [
        4
      ],
      "name": "RootNode"
    },
    {
      "children": [
        5
      ],
      "matrix": [
        1,
        0,
        0,
        0,
        0,
        2.2204460492503131e-16,
        -1,
        0,
        0,
        1,
        2.2204460492503131e-16,
        0,
        0.095810920000076294,
        0.003630712628364563,
        -0.14695307612419128,
        1
      ],
      "name": "Mask Final"
    },
    {
      "children": [
        6
      ],
      "matrix": [
        1,
        0,
        -0,
        0,
        0,
        1,
        0,
        0,
        0,
        0,
        1,
        0,
        -0.095810890197753906,
        -0.14695313572883606,
        -0.003630712628364563,
        1
      ],
      "name": ""
    },
    {
      "mesh": 0,
      "name": "Mask Final_Mask_0"
    }
  ],
  "samplers": [
    {
      "magFilter": 9729,
      "minFilter": 9987,
      "wrapS": 10497,
      "wrapT": 10497
    }
  ],
  "scene": 0,
  "scenes": [
    {
      "name": "OSG_Scene",
      "nodes": [
        0
      ]
    }
  ],
  "textures": [
    {
      "sampler": 0,
      "source": 0
    },
    {
      "sampler": 0,
      "source": 1
    },
    {
      "sampler": 0,
      "source": 2
    }
  ]
}

